<?xml version="1.0" encoding="UTF-8" standalone="no"?>
<svg
   width="38"
   height="38"
   viewBox="0 0 38 38"
   fill="none"
   version="1.1"
   id="svg6"
   sodipodi:docname="LinkedIn.svg"
   inkscape:version="1.1 (c68e22c387, 2021-05-23)"
   xmlns:inkscape="http://www.inkscape.org/namespaces/inkscape"
   xmlns:sodipodi="http://sodipodi.sourceforge.net/DTD/sodipodi-0.dtd"
   xmlns="http://www.w3.org/2000/svg"
   xmlns:svg="http://www.w3.org/2000/svg">
  <defs
     id="defs10" />
  <sodipodi:namedview
     id="namedview8"
     pagecolor="#505050"
     bordercolor="#eeeeee"
     borderopacity="1"
     inkscape:pageshadow="0"
     inkscape:pageopacity="0"
     inkscape:pagecheckerboard="0"
     showgrid="false"
     inkscape:zoom="22.973684"
     inkscape:cx="19"
     inkscape:cy="18.978236"
     inkscape:window-width="3840"
     inkscape:window-height="2054"
     inkscape:window-x="-11"
     inkscape:window-y="-11"
     inkscape:window-maximized="1"
     inkscape:current-layer="svg6" />
  <path
     d="M4.55833 9.11667C7.07583 9.11667 9.11667 7.07583 9.11667 4.55833C9.11667 2.04083 7.07583 0 4.55833 0C2.04083 0 0 2.04083 0 4.55833C0 7.07583 2.04083 9.11667 4.55833 9.11667Z"
     fill="white"
     id="path2"
     style="fill:#75fe29;fill-opacity:1" />
  <path
     d="M13.4208 12.5708V37.8604H21.2729V25.3541C21.2729 22.0541 21.8937 18.8583 25.9854 18.8583C30.0208 18.8583 30.0708 22.6312 30.0708 25.5625V37.8625H37.9271V23.9937C37.9271 17.1812 36.4604 11.9458 28.4979 11.9458C24.675 11.9458 22.1125 14.0437 21.0646 16.0291H20.9583V12.5708H13.4208ZM0.625 12.5708H8.48958V37.8604H0.625V12.5708Z"
     fill="white"
     id="path4"
     style="fill:#75fe29;fill-opacity:1" />
</svg>
