<?xml version="1.0" encoding="UTF-8" standalone="no"?>
<svg
   width="48"
   height="39"
   viewBox="0 0 48 39"
   fill="none"
   version="1.1"
   id="svg4"
   sodipodi:docname="Twitter.svg"
   inkscape:version="1.1 (c68e22c387, 2021-05-23)"
   xmlns:inkscape="http://www.inkscape.org/namespaces/inkscape"
   xmlns:sodipodi="http://sodipodi.sourceforge.net/DTD/sodipodi-0.dtd"
   xmlns="http://www.w3.org/2000/svg"
   xmlns:svg="http://www.w3.org/2000/svg">
  <defs
     id="defs8" />
  <sodipodi:namedview
     id="namedview6"
     pagecolor="#505050"
     bordercolor="#eeeeee"
     borderopacity="1"
     inkscape:pageshadow="0"
     inkscape:pageopacity="0"
     inkscape:pagecheckerboard="0"
     showgrid="false"
     inkscape:zoom="22.384615"
     inkscape:cx="24.012027"
     inkscape:cy="19.477663"
     inkscape:window-width="3840"
     inkscape:window-height="2054"
     inkscape:window-x="-11"
     inkscape:window-y="-11"
     inkscape:window-maximized="1"
     inkscape:current-layer="svg4" />
  <path
     d="M47.3042 4.5615C45.5646 5.33233 43.6958 5.85316 41.7312 6.08858C43.7583 4.87565 45.2749 2.96663 45.9979 0.717747C44.0934 1.84897 42.0091 2.64524 39.8354 3.07191C38.3737 1.51122 36.4376 0.476759 34.3278 0.129151C32.2179 -0.218458 30.0523 0.140229 28.1672 1.14952C26.282 2.15882 24.7829 3.76225 23.9024 5.71088C23.0219 7.65951 22.8094 9.84431 23.2979 11.9261C19.4389 11.7323 15.6638 10.7293 12.2176 8.98213C8.77129 7.23496 5.73092 4.78267 3.29375 1.78441C2.46042 3.22191 1.98125 4.88858 1.98125 6.66358C1.98032 8.26149 2.37382 9.83492 3.12683 11.2443C3.87984 12.6536 4.96909 13.8553 6.29792 14.7427C4.75683 14.6937 3.24974 14.2773 1.90208 13.5282V13.6532C1.90193 15.8943 2.67715 18.0665 4.09621 19.8011C5.51528 21.5357 7.49077 22.7259 9.6875 23.1698C8.25788 23.5567 6.75904 23.6137 5.30417 23.3365C5.92395 25.2649 7.13124 26.9511 8.75701 28.1593C10.3828 29.3674 12.3457 30.0369 14.3708 30.074C10.933 32.7728 6.68726 34.2367 2.31667 34.2302C1.54246 34.2305 0.768909 34.1852 0 34.0948C4.43641 36.9473 9.60071 38.4611 14.875 38.4552C32.7292 38.4552 42.4896 23.6677 42.4896 10.8427C42.4896 10.4261 42.4792 10.0052 42.4604 9.58858C44.3589 8.21561 45.9977 6.51545 47.3 4.56775L47.3042 4.5615Z"
     fill="white"
     id="path2"
     style="fill:#75fe29;fill-opacity:1" />
</svg>
